<svg width="89" height="84" viewBox="0 0 89 84" fill="none"
  xmlns="http://www.w3.org/2000/svg">
  <path d="M9.11075 80H7.60294L1.87637 71.2344V80H0.368561V68.625H1.87637L7.61856 77.4297V68.625H9.11075V80ZM11.1894 75.6953C11.1894 74.8672 11.3509 74.1224 11.6738 73.4609C12.0019 72.7995 12.4551 72.2891 13.0332 71.9297C13.6165 71.5703 14.2806 71.3906 15.0254 71.3906C16.1764 71.3906 17.1061 71.7891 17.8144 72.5859C18.528 73.3828 18.8847 74.4427 18.8847 75.7656V75.8672C18.8847 76.6901 18.7259 77.4297 18.4082 78.0859C18.0957 78.737 17.6452 79.2448 17.0566 79.6094C16.4733 79.974 15.8014 80.1562 15.041 80.1562C13.8952 80.1562 12.9655 79.7578 12.2519 78.9609C11.5436 78.1641 11.1894 77.1094 11.1894 75.7969V75.6953ZM12.6426 75.8672C12.6426 76.8047 12.8587 77.5573 13.291 78.125C13.7285 78.6927 14.3118 78.9766 15.041 78.9766C15.7754 78.9766 16.3587 78.6901 16.791 78.1172C17.2233 77.5391 17.4394 76.7318 17.4394 75.6953C17.4394 74.7682 17.2181 74.0182 16.7754 73.4453C16.3379 72.8672 15.7545 72.5781 15.0254 72.5781C14.3118 72.5781 13.7363 72.862 13.2988 73.4297C12.8613 73.9974 12.6426 74.8099 12.6426 75.8672ZM26.0734 71.5469L26.1124 72.4844C26.7322 71.7552 27.5682 71.3906 28.6202 71.3906C29.8025 71.3906 30.6072 71.8438 31.0343 72.75C31.3156 72.3438 31.6801 72.0156 32.1281 71.7656C32.5812 71.5156 33.115 71.3906 33.7296 71.3906C35.5838 71.3906 36.5265 72.3724 36.5577 74.3359V80H35.1124V74.4219C35.1124 73.8177 34.9744 73.3672 34.6984 73.0703C34.4223 72.7682 33.9588 72.6172 33.3077 72.6172C32.7713 72.6172 32.326 72.7786 31.9718 73.1016C31.6176 73.4193 31.4119 73.849 31.3546 74.3906V80H29.9015V74.4609C29.9015 73.2318 29.2999 72.6172 28.0968 72.6172C27.1489 72.6172 26.5005 73.0208 26.1515 73.8281V80H24.7062V71.5469H26.0734ZM42.2771 80.1562C41.1312 80.1562 40.1989 79.7812 39.4802 79.0312C38.7614 78.276 38.4021 77.2682 38.4021 76.0078V75.7422C38.4021 74.9036 38.5609 74.1562 38.8786 73.5C39.2015 72.8385 39.6495 72.3229 40.2224 71.9531C40.8005 71.5781 41.4255 71.3906 42.0974 71.3906C43.1963 71.3906 44.0505 71.7526 44.6599 72.4766C45.2692 73.2005 45.5739 74.237 45.5739 75.5859V76.1875H39.8474C39.8682 77.0208 40.1104 77.6953 40.5739 78.2109C41.0427 78.7214 41.6364 78.9766 42.3552 78.9766C42.8656 78.9766 43.2979 78.8724 43.6521 78.6641C44.0062 78.4557 44.3161 78.1797 44.5817 77.8359L45.4646 78.5234C44.7562 79.612 43.6937 80.1562 42.2771 80.1562ZM42.0974 72.5781C41.514 72.5781 41.0245 72.7917 40.6286 73.2188C40.2328 73.6406 39.988 74.2344 39.8942 75H44.1286V74.8906C44.087 74.1562 43.889 73.5885 43.5349 73.1875C43.1807 72.7812 42.7015 72.5781 42.0974 72.5781ZM52.1995 77.7578C52.1995 77.3672 52.0511 77.0651 51.7542 76.8516C51.4625 76.6328 50.9495 76.4453 50.2151 76.2891C49.486 76.1328 48.9052 75.9453 48.4729 75.7266C48.0459 75.5078 47.7281 75.2474 47.5198 74.9453C47.3167 74.6432 47.2151 74.2839 47.2151 73.8672C47.2151 73.1745 47.5068 72.5885 48.0901 72.1094C48.6787 71.6302 49.4287 71.3906 50.3401 71.3906C51.2985 71.3906 52.0745 71.638 52.6682 72.1328C53.2672 72.6276 53.5667 73.2604 53.5667 74.0312H52.1136C52.1136 73.6354 51.9443 73.2943 51.6057 73.0078C51.2724 72.7214 50.8505 72.5781 50.3401 72.5781C49.8141 72.5781 49.4026 72.6927 49.1057 72.9219C48.8089 73.151 48.6604 73.4505 48.6604 73.8203C48.6604 74.1693 48.7985 74.4323 49.0745 74.6094C49.3505 74.7865 49.8479 74.9557 50.5667 75.1172C51.2906 75.2786 51.8766 75.4714 52.3245 75.6953C52.7724 75.9193 53.1031 76.1901 53.3167 76.5078C53.5354 76.8203 53.6448 77.2031 53.6448 77.6562C53.6448 78.4115 53.3427 79.0182 52.7386 79.4766C52.1344 79.9297 51.3505 80.1562 50.387 80.1562C49.7099 80.1562 49.111 80.0365 48.5901 79.7969C48.0693 79.5573 47.6604 79.224 47.3636 78.7969C47.0719 78.3646 46.9261 77.8984 46.9261 77.3984H48.3714C48.3974 77.8828 48.5901 78.2682 48.9495 78.5547C49.3141 78.8359 49.7932 78.9766 50.387 78.9766C50.9339 78.9766 51.3714 78.8672 51.6995 78.6484C52.0328 78.4245 52.1995 78.1276 52.1995 77.7578ZM60.4735 77.7578C60.4735 77.3672 60.3251 77.0651 60.0282 76.8516C59.7365 76.6328 59.2235 76.4453 58.4891 76.2891C57.76 76.1328 57.1792 75.9453 56.7469 75.7266C56.3199 75.5078 56.0021 75.2474 55.7938 74.9453C55.5907 74.6432 55.4891 74.2839 55.4891 73.8672C55.4891 73.1745 55.7808 72.5885 56.3641 72.1094C56.9527 71.6302 57.7027 71.3906 58.6141 71.3906C59.5725 71.3906 60.3485 71.638 60.9422 72.1328C61.5412 72.6276 61.8407 73.2604 61.8407 74.0312H60.3876C60.3876 73.6354 60.2183 73.2943 59.8797 73.0078C59.5464 72.7214 59.1245 72.5781 58.6141 72.5781C58.0881 72.5781 57.6766 72.6927 57.3797 72.9219C57.0829 73.151 56.9344 73.4505 56.9344 73.8203C56.9344 74.1693 57.0725 74.4323 57.3485 74.6094C57.6245 74.7865 58.1219 74.9557 58.8407 75.1172C59.5646 75.2786 60.1506 75.4714 60.5985 75.6953C61.0464 75.9193 61.3771 76.1901 61.5907 76.5078C61.8094 76.8203 61.9188 77.2031 61.9188 77.6562C61.9188 78.4115 61.6167 79.0182 61.0126 79.4766C60.4084 79.9297 59.6245 80.1562 58.661 80.1562C57.9839 80.1562 57.385 80.0365 56.8641 79.7969C56.3433 79.5573 55.9344 79.224 55.6376 78.7969C55.3459 78.3646 55.2001 77.8984 55.2001 77.3984H56.6454C56.6714 77.8828 56.8641 78.2682 57.2235 78.5547C57.5881 78.8359 58.0672 78.9766 58.661 78.9766C59.2079 78.9766 59.6454 78.8672 59.9735 78.6484C60.3068 78.4245 60.4735 78.1276 60.4735 77.7578ZM69.0444 80C68.961 79.8333 68.8933 79.5365 68.8412 79.1094C68.1694 79.8073 67.3673 80.1562 66.435 80.1562C65.6017 80.1562 64.9168 79.9219 64.3803 79.4531C63.8491 78.9792 63.5834 78.3802 63.5834 77.6562C63.5834 76.776 63.9168 76.0938 64.5834 75.6094C65.2553 75.1198 66.198 74.875 67.4116 74.875H68.8178V74.2109C68.8178 73.7057 68.6668 73.3047 68.3647 73.0078C68.0626 72.7057 67.6173 72.5547 67.0287 72.5547C66.5131 72.5547 66.0808 72.6849 65.7319 72.9453C65.3829 73.2057 65.2084 73.5208 65.2084 73.8906H63.7553C63.7553 73.4688 63.9037 73.0625 64.2006 72.6719C64.5027 72.276 64.909 71.9635 65.4194 71.7344C65.935 71.5052 66.5001 71.3906 67.1147 71.3906C68.0886 71.3906 68.8517 71.6354 69.4037 72.125C69.9558 72.6094 70.2423 73.2786 70.2631 74.1328V78.0234C70.2631 78.7995 70.3621 79.4167 70.56 79.875V80H69.0444ZM66.6459 78.8984C67.0991 78.8984 67.5287 78.7812 67.935 78.5469C68.3412 78.3125 68.6355 78.0078 68.8178 77.6328V75.8984H67.685C65.9142 75.8984 65.0287 76.4167 65.0287 77.4531C65.0287 77.9062 65.1798 78.2604 65.4819 78.5156C65.784 78.7708 66.172 78.8984 66.6459 78.8984ZM72.209 75.7031C72.209 74.3854 72.5137 73.3385 73.1231 72.5625C73.7324 71.7812 74.5397 71.3906 75.5449 71.3906C76.5762 71.3906 77.3809 71.7552 77.959 72.4844L78.0293 71.5469H79.3496V79.7969C79.3496 80.8906 79.0241 81.7526 78.3731 82.3828C77.7272 83.013 76.8574 83.3281 75.7637 83.3281C75.1543 83.3281 74.558 83.1979 73.9746 82.9375C73.3913 82.6771 72.946 82.3203 72.6387 81.8672L73.3887 81C74.0085 81.7656 74.7663 82.1484 75.6621 82.1484C76.3652 82.1484 76.9121 81.9505 77.3027 81.5547C77.6986 81.1589 77.8965 80.6016 77.8965 79.8828V79.1562C77.3184 79.8229 76.5293 80.1562 75.5293 80.1562C74.5397 80.1562 73.7376 79.7578 73.1231 78.9609C72.5137 78.1641 72.209 77.0781 72.209 75.7031ZM73.6621 75.8672C73.6621 76.8203 73.8574 77.5703 74.2481 78.1172C74.6387 78.6589 75.1856 78.9297 75.8887 78.9297C76.8001 78.9297 77.4694 78.5156 77.8965 77.6875V73.8281C77.4538 73.0208 76.7897 72.6172 75.9043 72.6172C75.2012 72.6172 74.6517 72.8906 74.2559 73.4375C73.86 73.9844 73.6621 74.7943 73.6621 75.8672ZM85.0689 80.1562C83.9231 80.1562 82.9908 79.7812 82.2721 79.0312C81.5533 78.276 81.1939 77.2682 81.1939 76.0078V75.7422C81.1939 74.9036 81.3528 74.1562 81.6705 73.5C81.9934 72.8385 82.4413 72.3229 83.0143 71.9531C83.5924 71.5781 84.2174 71.3906 84.8893 71.3906C85.9882 71.3906 86.8424 71.7526 87.4518 72.4766C88.0611 73.2005 88.3658 74.237 88.3658 75.5859V76.1875H82.6393C82.6601 77.0208 82.9023 77.6953 83.3658 78.2109C83.8346 78.7214 84.4283 78.9766 85.1471 78.9766C85.6575 78.9766 86.0898 78.8724 86.4439 78.6641C86.7981 78.4557 87.108 78.1797 87.3736 77.8359L88.2564 78.5234C87.5481 79.612 86.4856 80.1562 85.0689 80.1562ZM84.8893 72.5781C84.3059 72.5781 83.8163 72.7917 83.4205 73.2188C83.0247 73.6406 82.7799 74.2344 82.6861 75H86.9205V74.8906C86.8788 74.1562 86.6809 73.5885 86.3268 73.1875C85.9726 72.7812 85.4934 72.5781 84.8893 72.5781Z" fill="#E0E0E0"/>
  <path d="M23.4 56.75V45.5765H9V13.1735L22.2923 2H81V45.5765H35.5846L23.4 56.75Z" stroke="#E0E0E0" stroke-width="3"/>
</svg>
